<?xml version="1.0" encoding="utf-8"?><!-- Uploaded to: SVG Repo, www.svgrepo.com, Generator: SVG Repo Mixer Tools -->
<svg width="800px" height="800px" viewBox="0 0 64 64" xmlns="http://www.w3.org/2000/svg"><path d="m29.23 20a15.58 15.58 0 0 0 -.53-3.22c-.06-.22-.66.15-.81.12a18.94 18.94 0 0 0 .59 3.44c.09.18.59-.04.75-.34zm18.77-4.77c.09 0 .12-.34.12-.56s-1.38-.57-1.46-.4-.29.59-.19.71a6.27 6.27 0 0 0 1.53.25zm.75 2.38a9.17 9.17 0 0 0 -2.5-.5c-.19.09-.19.75-.19.75s2.38.44 2.5.44.17-.53.17-.69zm-.56 5c.15-.06.09-.31.06-.53a9.63 9.63 0 0 0 -3-.78c-.13.09-.38.56-.28.65a21.12 21.12 0 0 0 3.2.63zm.15 2a29 29 0 0 0 -4-1.41c-.12 0-.37.59-.37.69s4.03 1.31 4.1 1.31.22-.5.25-.65zm-1.56 2.37c.16 0 .19-.37.25-.56a17.54 17.54 0 0 0 -3.86-1.42c-.1.07-.41.69-.32.75s3.75 1.25 3.91 1.17zm12.11 21.25a11.07 11.07 0 0 0 -7-5.37c-2.46-.72-2.53-2.22-5.46-3.16s-5 .16-7.6.38-2-1.16-3.78-1.66-5.75.81-5.75.81-.44-4.93-.44-5.12a43.86 43.86 0 0 1 5.75-2 7.74 7.74 0 0 1 3.39-.63c1.06 0 8.62-2 11.81-2.93s4.13-1.28 4.22-3.41-1.81-2.72-2.59-4.37.81-1.75 1-4.1-1.16-2.84-2.5-4.09-.6-2.28-.32-3.72-.06-2.31-.84-2.31-3.56.65-8.91 2.56l-14.3 5.09a3.11 3.11 0 0 0 -.25-.72c-.15-.28-1.93.44-2 .66s1.68 6.34 2.68 12.75 1.42 13.31 1.42 13.31a9.47 9.47 0 0 1 -1.94.5c-1.06.16-2.25.19-4.69.38s-3.47 2.06-4.84 3-3.35.78-4.66.87a11.38 11.38 0 0 0 -5.56 2.72c-2.25 1.94-2.22 5.41-1.41 7.16a3.87 3.87 0 0 0 4 2.43c2 0 17-.12 23.85-.4s23.56.62 24.15.62 3.25-.25 3.63-1 .5-5.12-1.06-8.25zm-33-32.31c.21-.09 10.18-3.81 13.78-5s7.65-2.12 7.65-2.12-.37 2.87.53 3.9 2.88 1.91 2.5 3.72-1.62 3.19-.71 4.66 2.43 2.47 2.31 3.62-1.75 1.6-2.44 2-11.44 3.22-13.94 3.66a65.47 65.47 0 0 0 -6.9 1.91zm32 39.35c-.35.28-6.28.25-12.72.06s-14.38-.06-22 .15-14.6.47-15 .35a2 2 0 0 1 -1.91-1.41c-.5-1.37-1.06-4.94 2.19-6.47 1.49-.7 3.37-1.72 4.81-1.78s2.47.13 4-1 2.44-2.43 4.66-2.78 4.09-.5 4.68-.59 1-.19 1-.19-.06.81.16.91a3.1 3.1 0 0 0 1.65-.16c.32-.22.25-1.53.25-1.53a6.46 6.46 0 0 1 4-.94c1.85.41 2.75 1.81 4.91 1.69s4.75-1.25 7.25-.31 1.78 2.09 3.75 2.73 5.16.75 6.88 3.88 1.81 7.12 1.47 7.39zm-9.44-35.1c.16-.09.06-.53 0-.78a8.68 8.68 0 0 0 -2.78-.47c-.16.1-.28.63-.19.69a18.28 18.28 0 0 0 3 .56zm-25.85 25.72c.66-1.09.06-2.38-1.53-2.12-1.34.23-2.07 1.59-1.47 2.43a1.93 1.93 0 0 0 3-.31zm-1.5-1.39c.8-.13 1.11.52.78 1.08a1 1 0 0 1 -1.53.16c-.35-.43.06-1.13.75-1.24zm18.19-.89c1.06.25 2.22-.34 2.13-1s-1.75-.49-2.47-.19-.72.94.34 1.19zm13.31 5.39c.66 0 2.1-.72 1.32-1.5a4.19 4.19 0 0 0 -3.1-.65c-.53.12-.31 1 0 1.31a3.14 3.14 0 0 0 1.78.84zm-23.93-.37c.18-.28.18-.85-2.41-1a8.58 8.58 0 0 0 -5.26 1.2 3.27 3.27 0 0 0 -1.78 2.69c.12.25 1.28.43 1.47.06s.28-.88 2.31-1.85 4.59-.18 4.84-.18.64-.69.83-.97zm-14-.69c-.13 0-.69.59-.6.72a19.66 19.66 0 0 0 2.53 1.12c.16 0 .32-.28.41-.5s-2.2-1.39-2.34-1.39zm-1.82 1.47c-.15 0-.71.44-.68.53s4.12 2.63 4.25 2.66.34-.32.47-.47a29.1 29.1 0 0 0 -4.04-2.77zm-2 .94c-.1 0-.69.34-.69.56a42 42 0 0 0 4.53 3 .82.82 0 0 0 .47-.41 39.93 39.93 0 0 0 -4.27-3.2zm-1.78 1.04a2.72 2.72 0 0 0 -.9.66 33.14 33.14 0 0 0 3.75 2.68c.12.07.53-.21.75-.37s-3.44-2.97-3.6-2.97zm20.57-5a11.26 11.26 0 0 0 -2.91-2.13 3.71 3.71 0 0 0 -.66.44s3.13 2 3.25 2.06.25-.15.32-.4zm2-1.44a15.89 15.89 0 0 0 -2.79-1.62c-.21 0-.81.37-.81.37a27.81 27.81 0 0 0 3.13 1.6.78.78 0 0 0 .47-.38zm2-1.19a18.79 18.79 0 0 0 -2.4-1.5c-.22 0-.82.36-.75.44a11.68 11.68 0 0 0 2.8 1.3.42.42 0 0 0 .31-.27zm-1.41 9.44c-.19-.12-.66.1-1.22 0s-.34-.59-1.28-.84-2.55 1-2.38 1.15a1.71 1.71 0 0 0 .79.54c.4.09.78-.69 1.18-.82s1.32.5 1.78.63a2.8 2.8 0 0 0 1.35-.1c.12-.09-.03-.43-.22-.56zm20-2.53c-.31.06-.56.5-.6.75s3.63 1.75 3.79 1.78.18-.12.28-.4-3.19-2.19-3.5-2.13zm-2.03 1.33c-.16 0-.81.5-.78.66a22.16 22.16 0 0 0 3.22 1.84c.21 0 1-.06 1.12-.25s-3.37-2.25-3.56-2.25zm-8.66-7.53c-2.34-.44-4.81.81-6 .91-2.28.19-4.22 1.87-3.47 4.31s4.38 1.75 5.53 1.91 2.72 2 4.94 2.09a4.48 4.48 0 0 0 4.81-4.5c.04-3.14-3.46-4.33-5.81-4.77zm4.46 5.26c-.12.66-1.75 1.79-1.84 1.79a34.9 34.9 0 0 0 -2.91-2c-.31 0-.87.44-.72.57s2.47 1.71 2.32 1.8a2.74 2.74 0 0 1 -1.31-.12c-.59-.16-2.5-1.69-4.4-1.85s-2.91-.28-3-1.28.79-1.87 2.07-1.87c2.07 0 4.18-1.32 6.81-.47s3.15 2.78 2.98 3.43zm-2.84-1.4c-.19 0-.69.53-.75.75s1.65 1.15 1.78 1.19a2.24 2.24 0 0 0 .91-.66c.13-.19-1.67-1.28-1.9-1.28z" fill="#1d1d1b"/></svg>